<svg version="1.1" id="Ebene_1" xmlns="http://www.w3.org/2000/svg" x="0" y="0" viewBox="0 0 100 100" style="enable-background:new 0 0 100 100" xml:space="preserve"><style>.st7{fill:#fff}</style><path d="M100.1 90.1c0 5.5-4.5 10-10 10H10c-5.5 0-10-4.5-10-10V10C0 4.5 4.5 0 10 0h80.1c5.5 0 10 4.5 10 10v80.1z" style="fill:#1d1d1b"/><path d="M36 48H17.1c-6.6 0-12-5.4-12-12V17.1c0-6.6 5.4-12 12-12H36c6.6 0 12 5.4 12 12V36c0 6.6-5.4 12-12 12z" style="fill:#009fe3"/><path d="M36 94.9H17.1c-6.6 0-12-5.4-12-12V64c0-6.6 5.4-12 12-12H36c6.6 0 12 5.4 12 12v18.9c0 6.6-5.4 12-12 12z" style="fill:#575756"/><path d="M82.9 94.9H64c-6.6 0-12-5.4-12-12V64c0-6.6 5.4-12 12-12h18.9c6.6 0 12 5.4 12 12v18.9c0 6.6-5.4 12-12 12z" style="fill:#29235c"/><path d="M32.8 57.5c.7.7.6 1.8-.1 2.6L13.3 79.4c-.7.7-1.9.8-2.6.1-.7-.7-.6-1.8.1-2.6l19.3-19.3c.8-.7 2-.8 2.7-.1z" style="fill:#ffd103"/><path d="M42.3 57.6c.7.7.6 1.8-.1 2.6l-29 28.9c-.7.7-1.9.8-2.6.1-.7-.7-.6-1.8.1-2.6l28.9-28.9c.8-.7 2-.7 2.7-.1z" style="fill:#f28d22"/><path d="M42.4 67.4c.7.7.6 1.8-.1 2.6L23.1 89.2c-.7.7-1.9.8-2.6.1-.7-.7-.6-1.8.1-2.6l19.2-19.2c.8-.7 1.9-.8 2.6-.1z" style="fill:#e9493e"/><circle class="st7" cx="38.8" cy="85.7" r="4.1"/><path d="M23.1 57.9c.7.7.6 1.8-.1 2.6l-9.7 9.7c-.7.7-1.9.8-2.6.1-.7-.7-.6-1.8.1-2.6l9.7-9.7c.7-.7 1.9-.7 2.6-.1z" style="fill:#25a843"/><g><linearGradient id="SVGID_1_" gradientUnits="userSpaceOnUse" x1="-139.843" y1="336.413" x2="-126.707" y2="323.277" gradientTransform="matrix(2.8186 0 0 -2.8186 449.098 956.251)"><stop offset="0" style="stop-color:#348878"/><stop offset="1" style="stop-color:#52bca6"/></linearGradient><path d="M52 15.1c0-5.5 4.5-10 10-10h22.9c5.5 0 10 4.5 10 10V38c0 5.5-4.5 10-10 10H62c-5.5 0-10-4.5-10-10V15.1z" style="fill:url(#SVGID_1_)"/><linearGradient id="SVGID_00000156567940959750845440000005392650898273943739_" gradientUnits="userSpaceOnUse" x1="-60.026" y1="309.259" x2="-57.699" y2="307.505" gradientTransform="matrix(10.6288 0 0 -10.6288 697.537 3304.201)"><stop offset="0" style="stop-color:#348878"/><stop offset="1" style="stop-color:#56bda8"/></linearGradient><path style="fill:url(#SVGID_00000156567940959750845440000005392650898273943739_)" d="M83.8 16.9h-20c-1.4 0-2.5 1.1-2.5 2.4v16l-.3 2.1 5.3-1.6h17.5c1.4 0 2.5-1.1 2.5-2.4V19.3c0-1.3-1.1-2.4-2.5-2.4z"/><path class="st7" d="M63.4 15.7c-2.1 0-3.9 1.6-3.9 3.7v16.2l-.5 3.9 7.1-1.9h17.7c2.1 0 3.9-1.6 3.9-3.7V19.5c0-2.1-1.8-3.7-3.9-3.7l-20.4-.1zm0 2.7h20.4c.7 0 1.2.5 1.2 1.1V34c0 .6-.5 1.1-1.2 1.1h-18l-3.6 1.1V19.6c0-.7.5-1.2 1.2-1.2z"/><path class="st7" d="M65.6 30.7v-1.9l4.1-2.2c.1-.1.3-.1.4-.2.1 0 .2-.1.4-.1h.3v-.1c-.1 0-.2 0-.3-.1-.1 0-.2-.1-.4-.1-.1 0-.2-.1-.4-.2l-4.1-2.2v-2l6.3 3.4v2.1l-6.3 3.6z"/><path class="st7" d="M65.3 21.1v2.8l4.3 2.3-4.3 2.3v2.8l.5-.3 6.5-3.5v-2.6l-7-3.8zm.6 1.2 5.7 3.1V27l-5.7 3.1V29l3.9-2.1c.1-.1.2-.1.3-.1.1 0 .2-.1.3-.1l.6-.1v-.9h-.3c-.1 0-.2 0-.3-.1-.1 0-.2-.1-.3-.1-.1 0-.2-.1-.3-.1l-3.9-2.1v-1z"/><g><path class="st7" d="M74.4 30h6.8v1.8h-6.8V30z"/><path class="st7" d="M74.1 29.7v2.6h7.4v-2.6h-7.4zm.7.7h6.1v1.1h-6.1v-1.1z"/></g></g></svg>